<svg id="Layer_1" data-name="Layer 1" xmlns="http://www.w3.org/2000/svg" viewBox="0 0 512 512"><defs><style>.cls-1{fill:#727272;}</style></defs><title>wedding-gate-handdrawn</title><path class="cls-1" d="M453.47,313.11,453,301l-.24-6.08-.79-6-1.6-12.07a177.63,177.63,0,0,0-30.9-73.55,207.22,207.22,0,0,0-58-54.46c-14.66-9.87-31.42-16-48.11-21.2-8.55-2-17-4.48-25.71-5.5-2.8-.38-5.59-.89-8.38-1.33,1.35-1.07,2.68-2.16,4.11-3.15a21.48,21.48,0,0,0,3.58-2.77L301.62,98.9a36.67,36.67,0,0,1,3.93-4.34c4.69-3.69,7.1-9.42,9.87-14.83a3.82,3.82,0,0,0,.34-2,3.34,3.34,0,0,0-.88-1.8,2.67,2.67,0,0,0-1.77-.61c-2.63.38-4,2.2-5.55,3.86a80.32,80.32,0,0,1-7.34,6.63c-1.18,1-2.82,1.34-5.2.28s-3.72-.28-4.8.83c-2.83,2.9-5.6,5.87-8.51,8.69-3.67,3.55-7.08,7.37-10.65,11-1.79,1.82-3.61,3.61-5.54,5.29q-1.44,1.26-3,2.44l-1.5,1.1a7.43,7.43,0,0,1-.85.37c-.5.18-.73.81-1.12,1.29l-1.33,1.72c-.43,0-.86,0-1.3.06a12.29,12.29,0,0,1-2-1.72l-1.2-1.36L251,113.46l-4.72-5c-3.17-3.3-6.41-6.53-9.85-9.58-3.73-3.31-8.41-6-9.24-12.08-.07-.49-.49-.77-.79-1.1-2.29-2.58-4.48-5.28-6.92-7.71l-6.23-6.32-3.09-3.19-1.55-1.59-1.07-1.28a35.74,35.74,0,0,1-6.42-11.53,30.67,30.67,0,0,1-1.4-7.71c-.61-8.08,2.71-16.87,9.69-21.36,3.72-2.4,7.18-4.79,11.32-6.13a15.45,15.45,0,0,1,1.9-.57,28.56,28.56,0,0,1,11.75.29,26.87,26.87,0,0,1,5.47,1.93,27.83,27.83,0,0,1,2.53,1.37c.4.26.82.49,1.2.78a21.42,21.42,0,0,1,1.85,1.4c3.79,3,7.94,7.81,11.8,11.53l3-3.09c3.17-3.41,6.65-6.74,5.73-11.7a3.23,3.23,0,0,1,1.12-3.55l3-1.91a10.45,10.45,0,0,1,10.39-1.27,11.39,11.39,0,0,0,3.72.45,39.4,39.4,0,0,1,4,.15,30.38,30.38,0,0,1,17.26,9.93l1.24,1.21a28.05,28.05,0,0,1,6.54,10.77c.44,1.32.17,2.79.55,4.08A30.09,30.09,0,0,1,312,61.9c-1.35,2.65-.77,6.1,0,11.13.89.21,1.68.56,2,.38a13.42,13.42,0,0,0,4.18-3.1,38.51,38.51,0,0,0,7.2-15.41c.19-.77.15-1.59.26-2.37a45.77,45.77,0,0,0-2.94-22.26c-1.62-4.42-3.86-8.82-7.43-12.06-3-2.6-5.83-5.35-9.27-7.36a34.36,34.36,0,0,0-13.25-5.18c-4-.47-7.84-.69-11.94-1.3a9.31,9.31,0,0,0-2.91.2,43.33,43.33,0,0,0-16,8.07c-1.66,1.25-3.27,3-4.72,3.68a17.39,17.39,0,0,1-1.07-1.82c-1.84-3.29-1.86-4.32-5.43-7a44.16,44.16,0,0,0-9.79-5.54c-5.78-2.49-12.4-2.3-18.34-.75a75.18,75.18,0,0,0-16.36,6.66,51.45,51.45,0,0,0-19.06,16.71,30.4,30.4,0,0,0-2.67,4.84c-3.18,7.77-3.74,16.27-3.13,24.64a36.21,36.21,0,0,0,7.55,19.27,56.53,56.53,0,0,0,7,7.48c2.1,1.83,4.16,3.7,6.11,5.69,5.16,5.24,12,8.79,15.93,15.25.39.63,1.28.81,1.89,1.25,1.09.78,2.41,1.36,3.18,2.44a124.35,124.35,0,0,0,13.33,15.55c-1.45.17-2.93.28-4.36.51-44.38,3.35-87.1,25.3-117.74,57.89a217.15,217.15,0,0,0-44,69.28c-3.6,7.94-5.35,16.89-7.06,25.17l-2.07,18.41c-.63,6.11-.58,12.27-1,18.39q-.56,17.55-1.11,35.15c-.25,6.85-.57,13.74-.5,20.59l1.2,98.95L60,478.66l.11,6.69,0,8.14c0,6.23-.07,12.42-.1,18.51l16.6-.11,6.76-.12,4.39-.16,17.46-.92,34.68-2.54a42.71,42.71,0,0,0,7.55-1.22c1.46-.39,3-1.31,2.85-1.9s-2.19-1.4-3.86-1.66c-9.85-1.56-20.13-1.21-30.51-1.1-15.07.15-30.16-.1-45.26-.36h-.57c.16-7.25,1.06-13,3.41-17.36,2.52-4.58,2.79-11.33,2.75-18.41l-.12-22.39a9.07,9.07,0,0,1,3.2-.08c.9.19,1.8.74,2.71.32a4.47,4.47,0,0,1,2.25-.07A7.37,7.37,0,0,0,87,444a1.87,1.87,0,0,1,2.25.83c.18.23.36.28.54.22a23.73,23.73,0,0,1,3.43-1.37c.63-.13,1.28-.37,1.89.86,1.27,2.58,2.57,2.93,3.85,4.06,1.05.92,2.1.35,3.16-.3a3.75,3.75,0,0,1,3.06-.77c1.44.46,2.88,1.71,4.33,2.61a3,3,0,0,0,.9.51c1.35.24,2.71,0,4.06.73,2.23,1.29,4.45-.94,6.68-.69,1.47.16,2.94-2,4.41-.17.14.18.3-.31.44-.42s.54-.7.8-.46a6.58,6.58,0,0,0,5.59,2c1.15-.16,2.28.55,3.42,1.39.36.26.73.4,1.08-.16,1-1.66,2-.94,3.06-.08.3.25.6.57.9.5.54-.13,1.08-.3,1.63-.45l.05,3.56a165.15,165.15,0,0,0,6.86,45.47c.79-2.28,1.61-3.56,1.72-5.16.53-7.4,1.16-14.88,1.22-22.36l.28-74.24-.18-10.31-.27-49.49c.07-4.33,0-8.66,0-13,.89.08,1.76.08,2.66.19a25.33,25.33,0,0,0,4.71-.38c2.85-.15,5.62-1,8.41-1.55s5.57-1.08,8.31-1.81a90.44,90.44,0,0,0,33.24-13.15c2.8-1.71,5.3-3.92,8-5.88a27.58,27.58,0,0,1,9.32-4.2,3.9,3.9,0,0,0,1.49-1,77.36,77.36,0,0,0,10.19-9.45A115.3,115.3,0,0,0,257,261.8l.68,1.4a117.63,117.63,0,0,0,24.54,36.57c3.29,3.11,6.47,6.39,10.27,8.91,2.36,1.69,4.88,3.39,8.4.41a2.76,2.76,0,0,1,3.63-.3c1.52.88,3,1.8,4.59,2.55,2.33,1.24,4.79,2.15,7,3.58a55,55,0,0,1,6.37,4.92,18.63,18.63,0,0,0,5.25,2.76,44.94,44.94,0,0,0,6.25,2c9,3.3,18.86,4.82,28.35,5.67.07,11.12,0,22.32-.95,32.91-2.57,29.1-2.93,58.66-4.05,88.07-.32,8.45-.46,16.91-.48,25.36l.26,32.48,17.29-.24,11.23-.28,29.4-.66,14.72-.18,20.43,0q0-8.4.1-16.75c.46-33.37,1.71-66,2.61-99,.19-6.86.45-13.73.51-20.6l.17-46.44C453.47,320.89,453.61,317.13,453.47,313.11ZM430.73,435.41c-.24-.22-.48.07-.72.14-.87.25-1.74.86-2.61.7-1.84-.33-3.67-1-5.51-.58-1,.23-2,1.58-3-2.22-.08-.3-.18-.21-.27-.25a7.8,7.8,0,0,0-2.07-.7c-2.37-.13-4.75-.92-7.12-.38-.69.16-1.38.17-2.08.31-2.14.4-4.28,1-6.41-.55-1.18-.83-2.35-.48-3.52-.45a2.53,2.53,0,0,1-.54,0c-2.17-.38-4.33-.8-6.5-1.17a6.86,6.86,0,0,0-2-.12c-.42.05-.86.24-1.05,4.66-.08,1.81-.25,2.11-.44,2.14a1.81,1.81,0,0,0-.81.2c-.82.53-1.62.17-2.42-1.89-.28-.73-.59-.67-.89-.78s-.66.06-1-.06c-1.72-.62-3.43-1.29-5.14-1.94a1.11,1.11,0,0,0-.45,0l-.93,0,.37-42.38,0-6.29c.16,0,.33.05.49,0a4.47,4.47,0,0,1,2.25-.07,7.37,7.37,0,0,0,2.71.14,1.87,1.87,0,0,1,2.25.83c.18.23.36.28.54.22a23.73,23.73,0,0,1,3.43-1.37c.63-.13,1.28-.37,1.89.86,1.27,2.58,2.57,2.93,3.85,4.06,1.05.92,2.1.35,3.16-.3a3.75,3.75,0,0,1,3.06-.77c1.44.46,2.88,1.71,4.33,2.61a3,3,0,0,0,.9.51c1.35.24,2.71,0,4.06.73,2.23,1.29,4.45-.94,6.68-.69,1.47.16,2.94-2,4.41-.17.14.18.3-.31.44-.42s.54-.7.8-.46a6.58,6.58,0,0,0,5.59,2c1.15-.16,2.28.55,3.42,1.39.36.26.73.4,1.08-.16,1-1.66,2-.94,3.06-.08.3.25.6.57.9.5l.5-.14q-.09,21.58-.56,43.13C433.49,436.45,432.11,436.71,430.73,435.41Zm4.63-92.69.13,33.16c-1.59.31-3.18.87-4.77-.64-.24-.22-.48.07-.72.14-.87.25-1.74.86-2.61.7-1.84-.33-3.67-1-5.51-.58-1,.23-2,1.58-3-2.22-.08-.3-.18-.21-.27-.25a7.8,7.8,0,0,0-2.07-.7c-2.37-.13-4.75-.92-7.12-.38-.69.16-1.38.17-2.08.31-2.14.4-4.28,1-6.41-.55-1.18-.83-2.35-.48-3.52-.45a2.53,2.53,0,0,1-.54,0c-2.17-.38-4.33-.8-6.5-1.17a6.86,6.86,0,0,0-2-.12c-.42.05-.86.24-1.05,4.66-.08,1.81-.25,2.11-.44,2.14a1.83,1.83,0,0,0-.81.2c-.82.53-1.62.17-2.42-1.89-.28-.73-.59-.67-.89-.78s-.66.06-1-.06c-1.72-.62-3.43-1.29-5.14-1.94a1.11,1.11,0,0,0-.45,0h-.52l.08-27.61a106.92,106.92,0,0,0-.71-14.1l15.76,0c2.23,0,4.47.62,6.69.51l34.6-1.92a13.27,13.27,0,0,0,3.19-.56ZM326.72,150.91c47.52,20.47,84.49,62.39,100.16,111.38,4,14.41,7.43,29.17,7.77,44.24l.5,8.72,0,4.11c-6.12-.17-12.24-.2-18.36-.25-.93,0-1.86.16-2.79.18-8.93.12-17.87.53-26.8.22-5.59-.19-11.15-.74-16.75-.32h-.37c-.94-2.07-1.14-5.16-1.41-8.77a103.08,103.08,0,0,0-2.51-19.18,150.65,150.65,0,0,0-24.48-52,49.51,49.51,0,0,0-7-8.06,75.62,75.62,0,0,0-8.32-7.22,72.13,72.13,0,0,0-10-6.84c-1.74-1-3.44-2.12-5.21-3.08l-5.43-2.67c-4.59-2.55-9.64-4.06-14.5-6-5.08-1.28-10.06-3.09-15.28-3.73a88.2,88.2,0,0,0-12.66-1.56c.1-.15.11-.29.23-.44s-.07-.52-.14-.78c-.25-.94-.86-1.89-.7-2.83.33-2,1-4,.58-6-.22-1.08-1.57-2.21,2.22-3.27.3-.08.21-.19.25-.29a8.87,8.87,0,0,0,.7-2.25c.13-2.57.92-5.14.38-7.72-.16-.75-.18-1.5-.31-2.25-.4-2.32-1-4.63.55-6.94.83-1.27.48-2.54.45-3.81a3,3,0,0,1,0-.59c.38-2.35.8-4.7,1.17-7a8.06,8.06,0,0,0,.12-2.15c-.05-.46-.24-.93-4.66-1.14-1.82-.08-2.12-.27-2.15-.48a2.09,2.09,0,0,0-.2-.88c-.53-.89-.17-1.76,1.89-2.62.73-.31.67-.64.78-1s-.06-.72.06-1.08c.62-1.86,1.3-3.71,1.94-5.57a1.23,1.23,0,0,0,0-.49c0-1.21-.1-2.41-.05-3.62,0-.39.62-.78.51-1.17s-.22-.67-.32-1a82,82,0,0,1,11.21,2.35,39.88,39.88,0,0,0,5.74,1.13C298.52,140.28,312.74,145.54,326.72,150.91ZM85.89,256.83a163,163,0,0,1,26.34-51.22,186.54,186.54,0,0,1,44.31-41.4,191.39,191.39,0,0,1,55.34-24.62,156.75,156.75,0,0,1,37.3-5.82L255,140c0,.18-.05.36,0,.54a5.26,5.26,0,0,1,.07,2.44,8.61,8.61,0,0,0-.14,2.93,2.11,2.11,0,0,1-.83,2.44.5.5,0,0,0-.21.58,27,27,0,0,1,1.37,3.71,1.51,1.51,0,0,1-.86,2c-2.57,1.38-2.93,2.78-4.05,4.18-.92,1.14-.35,2.28.3,3.42a4.33,4.33,0,0,1,.77,3.32c-.46,1.56-1.71,3.13-2.61,4.69a3.34,3.34,0,0,0-.51,1c-.25,1.47,0,2.94-.73,4.4-1.29,2.42.94,4.83.69,7.24-.16,1.59,2,3.19.17,4.78-.18.16.31.32.42.48s.7.58.46.86a7.49,7.49,0,0,0-2,6.06c.16,1.25-.55,2.48-1.39,3.71-.26.39-.4.79.16,1.17.12.08.14.16.23.23-.58,0-1.16,0-1.74.08a121.17,121.17,0,0,0-30.78,7.29c-9.76,4-19.36,8.86-27.71,15.47-3.12,2.08-5.71,4.81-8.51,7.28a117.39,117.39,0,0,0-35.87,72.75l-.54,8c-2.38-.18-4.76-.45-7.07-.75a32.85,32.85,0,0,0-5.58-.5L101.7,311a56.53,56.53,0,0,1-7.24.38c-6.44-.54-12.66,1.25-18.9,3,.48-14.45,2-28.57,6.08-42.25C83.31,267.2,83.87,261.77,85.89,256.83Zm50.73,178.58c-.24-.22-.48.07-.72.14-.87.25-1.74.86-2.61.7-1.84-.33-3.67-1-5.51-.58-1,.23-2,1.58-3-2.22-.08-.3-.18-.21-.27-.25a7.8,7.8,0,0,0-2.07-.7c-2.37-.13-4.75-.92-7.12-.38-.69.16-1.38.17-2.08.31-2.14.4-4.28,1-6.41-.55-1.18-.83-2.35-.48-3.52-.45a2.53,2.53,0,0,1-.54,0c-2.17-.38-4.33-.8-6.5-1.17a6.85,6.85,0,0,0-2-.12c-.43.05-.86.24-1.05,4.66-.08,1.81-.25,2.11-.44,2.14a1.81,1.81,0,0,0-.81.2c-.82.53-1.62.17-2.42-1.89-.28-.73-.59-.67-.89-.78s-.66.06-1-.06c-1.72-.62-3.43-1.29-5.14-1.94a1.11,1.11,0,0,0-.45,0c-1.11,0-2.23.1-3.34.06-.36,0-.72-.62-1.08-.51-.53.17-1.07.37-1.6.56l-.12-22.13-.18-26.86a10.35,10.35,0,0,1,3.56-.13c.9.19,1.8.74,2.71.32a4.47,4.47,0,0,1,2.25-.07,7.37,7.37,0,0,0,2.71.14,1.87,1.87,0,0,1,2.25.83c.18.23.36.28.54.22a23.73,23.73,0,0,1,3.43-1.37c.63-.13,1.28-.37,1.89.86,1.27,2.58,2.57,2.93,3.85,4.06,1.05.92,2.1.35,3.16-.3a3.75,3.75,0,0,1,3.06-.77c1.44.46,2.88,1.71,4.33,2.61a3,3,0,0,0,.9.51c1.35.24,2.71,0,4.06.73,2.23,1.29,4.45-.94,6.68-.69,1.47.16,2.94-2,4.41-.17.14.18.3-.31.44-.42s.54-.7.8-.46a6.58,6.58,0,0,0,5.59,2c1.15-.16,2.28.55,3.42,1.39.36.26.73.4,1.08-.16,1-1.66,2-.94,3.06-.08.3.25.6.57.9.5s.48-.14.72-.2l.65,43C140.34,436.13,138.48,437.17,136.62,435.41Zm4.67-59.51c-1.56.32-3.12.83-4.67-.65-.24-.22-.48.07-.72.14-.87.25-1.74.86-2.61.7-1.84-.33-3.67-1-5.51-.58-1,.23-2,1.58-3-2.22-.08-.3-.18-.21-.27-.25a7.8,7.8,0,0,0-2.07-.7c-2.37-.13-4.75-.92-7.12-.38-.69.16-1.38.17-2.08.31-2.14.4-4.28,1-6.41-.55-1.18-.83-2.35-.48-3.52-.45a2.53,2.53,0,0,1-.54,0c-2.17-.38-4.33-.8-6.5-1.17a6.85,6.85,0,0,0-2-.12c-.43.05-.86.24-1.05,4.66-.08,1.81-.25,2.11-.44,2.14a1.83,1.83,0,0,0-.81.2c-.82.53-1.62.17-2.42-1.89-.28-.73-.59-.67-.89-.78s-.66.06-1-.06c-1.72-.62-3.43-1.29-5.14-1.94a1.11,1.11,0,0,0-.45,0c-1.11,0-2.23.1-3.34.06-.36,0-.72-.62-1.08-.51-.66.21-1.32.45-2,.69l-.22-32.24c-.07-6.47-.11-12.87,0-19.22,1.31.07,2.63,0,4-.08,4.08-.15,8.17.1,12.25.36a5.54,5.54,0,0,1,4.86,3.42c1.24,2.52,3.07,2.79,5,2.75,5-.11,10-.31,15.07-.3,8.09,0,16-.47,24.08-.44,0,.61,0,1.22,0,1.83Zm207.28-58.13c-2.68-.52-5.41-.78-8.06-1.44a64.77,64.77,0,0,1-6.63-1.66,31,31,0,0,1-6.11-3.07,11.48,11.48,0,0,0-2.95-1.31c-3.25-1.09-6.4-2.47-9.65-3.69-3.14-1.42-6.17-3.13-9.22-4.8-3.16-2.11-6.54-4.31-8.61-7.54-4.06-7-9.17-12.53-12.71-19.27-1.45-2.72-3.27-5.12-4.83-7.73s-3.65-4.9-5.14-7.57a54.36,54.36,0,0,1-7.37-16.25c-.73-4.18-1.71-8.28-1.65-12.52l-.13-3.94c.07-.76.18-1.52.2-2.28l.34-9.82,0-.41H248.34l-.13,1.17c-.52,7.64-.94,15.43-3.73,22.6-4.25,11.68-7.6,24-15.36,34.16-4.81,6.69-9.47,14.16-17,18.25-.77.34-1.16,1.25-1.77,1.84-1.09,1.06-2,2.4-3.37,3.11a255,255,0,0,1-29.27,11.9,56.35,56.35,0,0,1-19,2.17,14.37,14.37,0,0,0-6,.46c-.16.05-.32.06-.48.1a91,91,0,0,1,2.61-18.73c4.67-19.78,15.38-37.59,29.59-52a101,101,0,0,1,43.08-25.26,97.52,97.52,0,0,1,19.72-3.56c.13,1.1,2,2.17,3.73,3.25a4,4,0,0,0,1.22.36,13.23,13.23,0,0,0,1.9.14,8.39,8.39,0,0,0,1.67-.18c1.56-.47,1.21-1,1.1-1.45a4,4,0,0,1,.36-2.15c.06-.18.36-.34,1-.49a123.24,123.24,0,0,1,29.11,4.33,92.14,92.14,0,0,1,42.36,25.92l7.89,8.91c16.44,19.08,25,44.3,24.63,69.88-1.83-.1-3.66-.22-5.47-.35A49.63,49.63,0,0,1,348.58,317.77ZM434,491.5l-20.63.09-12.38,0-18.4-.14-4.6,0-2.22,0-.22,0-.8-.07.41-47.31a1.7,1.7,0,0,0,1-.05,4.47,4.47,0,0,1,2.25-.07,7.37,7.37,0,0,0,2.71.14,1.87,1.87,0,0,1,2.25.83c.18.23.36.28.54.22a23.73,23.73,0,0,1,3.43-1.37c.63-.13,1.28-.37,1.89.86,1.27,2.58,2.57,2.93,3.85,4.06,1.05.92,2.1.35,3.16-.3a3.75,3.75,0,0,1,3.06-.77c1.44.46,2.88,1.71,4.33,2.61a3,3,0,0,0,.9.51c1.35.24,2.71,0,4.06.73,2.23,1.29,4.45-.94,6.68-.69,1.47.16,2.94-2,4.41-.17.14.18.3-.31.44-.42s.54-.7.8-.46a6.58,6.58,0,0,0,5.59,2c1.15-.16,2.28.55,3.42,1.39.36.26.73.4,1.08-.16,1-1.66,2-.94,3.06-.08a4.87,4.87,0,0,0,.47.38q-.36,12-.46,24Z"/></svg>